HIERARCHY
ROOT joint_Root
{
	OFFSET 0.0 0.0 0.0
	CHANNELS 6 Xposition Yposition Zposition Zrotation Xrotation Yrotation 
	JOINT Hips
	{
		OFFSET 4.5925 91.4895 -427.239
		CHANNELS 6 Xposition Yposition Zposition Zrotation Xrotation Yrotation 
		JOINT Spine
		{
			OFFSET 15.7357 0.0 0.0
			CHANNELS 6 Xposition Yposition Zposition Zrotation Xrotation Yrotation 
			JOINT Chest
			{
				OFFSET 8.98455 -0.406207 0.0
				CHANNELS 6 Xposition Yposition Zposition Zrotation Xrotation Yrotation 
				JOINT Neck
				{
					OFFSET 16.3773 0.0 0.0
					CHANNELS 6 Xposition Yposition Zposition Zrotation Xrotation Yrotation 
					JOINT Head
					{
						OFFSET 6.45672 0.0 0.0
						CHANNELS 6 Xposition Yposition Zposition Zrotation Xrotation Yrotation 
						End Site
						{
							OFFSET 0.0 0.0 0.0
						}
					}
				}
				JOINT Shoulder_L
				{
					OFFSET 12.9942 -0.242716 4.98039
					CHANNELS 6 Xposition Yposition Zposition Zrotation Xrotation Yrotation 
					JOINT UpperArm_L
					{
						OFFSET 5.34809 0.0 0.0
						CHANNELS 6 Xposition Yposition Zposition Zrotation Xrotation Yrotation 
						JOINT LowerArm_L
						{
							OFFSET 24.3286 1.87007e-05 0.0
							CHANNELS 6 Xposition Yposition Zposition Zrotation Xrotation Yrotation 
							JOINT Hand_L
							{
								OFFSET 22.2916 0.0 0.0
								CHANNELS 6 Xposition Yposition Zposition Zrotation Xrotation Yrotation 
								End Site
								{
									OFFSET 0.0 0.0 0.0
								}
							}
						}
					}
				}
				JOINT Shoulder_R
				{
					OFFSET 12.9945 -0.242716 -4.98039
					CHANNELS 6 Xposition Yposition Zposition Zrotation Xrotation Yrotation 
					JOINT UpperArm_R
					{
						OFFSET -5.34813 0.0 0.0
						CHANNELS 6 Xposition Yposition Zposition Zrotation Xrotation Yrotation 
						JOINT LowerArm_R
						{
							OFFSET -24.3289 0.000322201 0.0
							CHANNELS 6 Xposition Yposition Zposition Zrotation Xrotation Yrotation 
							JOINT Hand_R
							{
								OFFSET -22.2915 -0.000108084 0.0
								CHANNELS 6 Xposition Yposition Zposition Zrotation Xrotation Yrotation 
								End Site
								{
									OFFSET 0.0 0.0 0.0
								}
							}
						}
					}
				}
			}
		}
		JOINT UpperLeg_L
		{
			OFFSET -2.19248 -6.46944 0.0
			CHANNELS 6 Xposition Yposition Zposition Zrotation Xrotation Yrotation 
			JOINT LowerLeg_L
			{
				OFFSET 39.0811 0.0 -1.23785e-05
				CHANNELS 6 Xposition Yposition Zposition Zrotation Xrotation Yrotation 
				JOINT Foot_L
				{
					OFFSET 40.9854 0.0 -1.26872e-05
					CHANNELS 6 Xposition Yposition Zposition Zrotation Xrotation Yrotation 
					JOINT Toes_L
					{
						OFFSET 11.7543 0.0 0.0
						CHANNELS 6 Xposition Yposition Zposition Zrotation Xrotation Yrotation 
						End Site
						{
							OFFSET 0.0 0.0 0.0
						}
					}
				}
			}
		}
		JOINT UpperLeg_R
		{
			OFFSET -2.19251 6.46944 0.0
			CHANNELS 6 Xposition Yposition Zposition Zrotation Xrotation Yrotation 
			JOINT LowerLeg_R
			{
				OFFSET -39.0811 -0.00228153 -0.0401928
				CHANNELS 6 Xposition Yposition Zposition Zrotation Xrotation Yrotation 
				JOINT Foot_R
				{
					OFFSET -40.9854 0.0 0.0
					CHANNELS 6 Xposition Yposition Zposition Zrotation Xrotation Yrotation 
					JOINT Toes_R
					{
						OFFSET -11.7543 0.0 0.0
						CHANNELS 6 Xposition Yposition Zposition Zrotation Xrotation Yrotation 
						End Site
						{
							OFFSET 0.0 0.0 0.0
						}
					}
				}
			}
		}
	}
}
MOTION
Frames:	9
Frame Time:	0.0333333
0.000000 0.000000 0.000000 0.000000 0.000000 -0.000000 -71.797000 90.050900 191.220000 -50.256100 89.390700 141.179000 15.735700 0.000005 -0.000001 69.882800 84.638200 -69.275300 8.984550 -0.406207 -0.000000 2.327960 -3.714340 1.289730 16.377300 -0.000001 -0.000001 1.372540 -6.445950 -1.019750 6.456720 -0.000001 -0.000000 -4.689620 -5.624390 -5.375860 12.994200 -0.242716 4.980390 -90.781600 2.930340 -75.059000 5.348090 -0.000007 -0.000001 -48.340800 21.505400 -46.209500 24.328600 0.000019 0.000005 9.275450 13.696700 -34.593500 22.291600 -0.000001 0.000005 14.542500 5.247690 1.493790 12.994500 -0.242716 -4.980390 87.860700 9.844440 -77.675100 -5.348130 -0.000001 -0.000004 -63.484900 18.906300 3.584490 -24.328900 0.000322 -0.000009 0.575266 7.537450 -4.384700 -22.291500 -0.000108 -0.000004 16.974100 5.200680 2.702170 -2.192480 -6.469440 -0.000000 -178.216000 0.883189 1.798930 39.081100 -0.000007 -0.000012 0.006269 -0.010993 29.692700 40.985400 -0.000006 -0.000013 4.118190 4.119360 -72.501000 11.754300 -0.000000 0.000003 -0.276589 -0.378333 -20.346200 -2.192510 6.469440 -0.000001 179.876000 12.823900 151.477000 -39.081100 -0.002282 -0.040193 0.063323 -0.065340 42.585100 -40.985400 0.000008 0.000006 5.002750 2.317620 -59.030000 -11.754300 -0.000006 -0.000006 -0.021096 -0.173288 -23.655100
0.000000 0.000000 0.000000 0.000000 0.000000 -0.000000 -68.430800 89.524200 191.982000 -72.932400 87.457300 163.125000 15.735700 0.000005 -0.000001 66.795800 84.529100 -65.926600 8.984550 -0.406207 -0.000000 2.330640 -4.349170 1.825920 16.377300 -0.000001 -0.000001 0.370556 -6.157770 -0.670160 6.456720 -0.000001 -0.000000 -5.683450 -4.822130 -4.589380 12.994200 -0.242716 4.980390 -90.559200 2.129370 -75.282300 5.348090 -0.000007 -0.000001 -47.380400 19.271800 -49.947400 24.328600 0.000019 0.000005 10.766200 13.166600 -39.854200 22.291600 -0.000001 0.000005 15.505700 5.244910 1.567980 12.994500 -0.242716 -4.980390 87.900600 9.431630 -77.390500 -5.348130 -0.000001 -0.000004 -62.145200 14.877200 9.639870 -24.328900 0.000322 -0.000009 0.475782 6.081980 -4.491460 -22.291500 -0.000108 -0.000004 16.632700 5.204650 2.601710 -2.192480 -6.469440 -0.000000 -177.000000 1.961570 3.217720 39.081100 -0.000007 -0.000012 0.002292 -0.004040 29.563900 40.985400 -0.000006 -0.000013 4.058520 5.210300 -73.123400 11.754300 -0.000000 0.000003 -0.012893 -0.124127 -21.638200 -2.192510 6.469440 -0.000001 -179.036000 12.413800 149.680000 -39.081100 -0.002282 -0.040193 0.049421 -0.065730 35.061800 -40.985400 0.000008 0.000006 5.246220 -0.199886 -58.874200 -11.754300 -0.000006 -0.000006 -0.019761 -0.165960 -23.353100
0.000000 0.000000 0.000000 0.000000 0.000000 -0.000000 -64.454400 88.648200 192.917000 -74.544100 85.884100 164.713000 15.735700 0.000005 -0.000001 63.853300 84.216700 -62.727600 8.984550 -0.406207 -0.000000 2.678220 -5.142580 2.370550 16.377300 -0.000001 -0.000001 -0.268405 -5.738120 -0.267067 6.456720 -0.000001 -0.000000 -6.756640 -3.831250 -3.802080 12.994200 -0.242716 4.980390 -90.466400 1.794980 -75.432500 5.348090 -0.000007 -0.000001 -46.832700 16.899900 -51.570500 24.328600 0.000019 0.000005 11.887500 11.764800 -45.916200 22.291600 -0.000001 0.000005 16.992100 5.244750 1.572120 12.994500 -0.242716 -4.980390 88.003600 8.775430 -77.129700 -5.348130 -0.000001 -0.000004 -60.938100 12.838000 14.447200 -24.328900 0.000322 -0.000009 0.413443 5.268250 -4.504680 -22.291500 -0.000108 -0.000004 15.899300 5.211370 2.432500 -2.192480 -6.469440 -0.000000 -175.597000 2.650680 5.377160 39.081100 -0.000007 -0.000012 -0.002501 0.004294 30.230500 40.985400 -0.000006 -0.000013 3.747590 6.214340 -73.841100 11.754300 -0.000000 0.000003 -0.024467 -0.190896 -24.385700 -2.192510 6.469440 -0.000001 -176.449000 16.442100 147.601000 -39.081100 -0.002282 -0.040193 0.033280 -0.045628 33.312000 -40.985400 0.000008 0.000006 2.206730 1.847860 -60.145000 -11.754300 -0.000006 -0.000006 -0.020505 -0.170072 -23.522500
0.000000 0.000000 0.000000 0.000000 0.000000 -0.000000 -59.981100 87.624600 193.980000 -74.471100 85.037200 164.685000 15.735700 0.000005 -0.000001 60.825900 84.089300 -59.567500 8.984550 -0.406207 -0.000000 2.633290 -5.814010 2.649620 16.377300 -0.000001 -0.000001 -0.323927 -5.392010 0.275528 6.456720 -0.000001 -0.000000 -7.297120 -2.898680 -2.885530 12.994200 -0.242716 4.980390 -90.513800 1.967680 -75.362500 5.348090 -0.000007 -0.000001 -46.243900 15.192500 -51.377700 24.328600 0.000019 0.000005 11.782800 9.497470 -51.659600 22.291600 -0.000001 0.000005 18.972700 5.268610 0.939619 12.994500 -0.242716 -4.980390 87.987900 8.494110 -76.620800 -5.348130 -0.000001 -0.000004 -59.690700 12.302100 17.828100 -24.328900 0.000322 -0.000009 0.375735 6.005960 -3.601250 -22.291500 -0.000108 -0.000004 15.880500 5.202940 2.645340 -2.192480 -6.469440 -0.000000 -174.022000 2.300870 7.027120 39.081100 -0.000007 -0.000012 -0.006521 0.010265 32.427200 40.985400 -0.000006 -0.000013 3.537510 7.487270 -73.557500 11.754300 -0.000000 0.000003 -0.052113 -0.305231 -29.155800 -2.192510 6.469440 -0.000001 -173.748000 19.438500 145.297000 -39.081100 -0.002282 -0.040193 0.036661 -0.045896 36.021800 -40.985400 0.000008 0.000006 2.061060 5.858030 -59.877500 -11.754300 -0.000006 -0.000006 -0.021447 -0.175173 -23.732800
0.000000 0.000000 0.000000 0.000000 0.000000 -0.000000 -54.890300 86.548400 195.139000 -73.926200 84.030100 164.394000 15.735700 0.000005 -0.000001 56.498600 84.065300 -55.172700 8.984550 -0.406207 -0.000000 2.223640 -6.610900 2.779910 16.377300 -0.000001 -0.000001 0.155869 -5.253030 0.646670 6.456720 -0.000001 -0.000000 -7.153180 -2.439620 -1.442310 12.994200 -0.242716 4.980390 -90.579500 2.177800 -75.094500 5.348090 -0.000007 -0.000001 -45.720300 14.901600 -49.899000 24.328600 0.000019 0.000005 11.194100 7.533130 -56.479100 22.291600 -0.000001 0.000005 21.137800 5.298680 0.114704 12.994500 -0.242716 -4.980390 87.836700 8.473530 -75.621500 -5.348130 -0.000001 -0.000004 -58.743200 12.415000 19.969500 -24.328900 0.000322 -0.000009 0.276663 7.819760 -2.042830 -22.291500 -0.000108 -0.000004 17.199200 5.173700 3.363930 -2.192480 -6.469440 -0.000000 -171.909000 1.369950 7.432460 39.081100 -0.000007 -0.000012 -0.000000 0.000002 37.262100 40.985400 -0.000006 -0.000013 3.712970 9.108950 -70.787200 11.754300 -0.000000 0.000003 -0.129565 -0.512693 -38.143000 -2.192510 6.469440 -0.000001 -172.326000 18.818200 144.543000 -39.081100 -0.002282 -0.040193 0.076990 -0.084548 41.084100 -40.985400 0.000008 0.000006 10.422700 5.710990 -58.083400 -11.754300 -0.000006 -0.000006 -0.011338 -0.113379 -21.194300
0.000000 0.000000 0.000000 0.000000 0.000000 -0.000000 -49.373200 85.473800 196.220000 -76.954700 83.795300 169.180000 15.735700 0.000005 -0.000001 56.379500 83.896400 -55.279000 8.984550 -0.406207 -0.000000 2.481810 -6.804400 2.348290 16.377300 -0.000001 -0.000001 0.694159 -5.481870 0.952878 6.456720 -0.000001 -0.000000 -6.447330 -2.486260 -0.126204 12.994200 -0.242716 4.980390 -90.621800 2.273990 -74.703200 5.348090 -0.000007 -0.000001 -45.657500 16.063100 -47.598800 24.328600 0.000019 0.000005 11.373600 6.632640 -60.134400 22.291600 -0.000001 0.000005 22.311100 5.322720 -0.574225 12.994500 -0.242716 -4.980390 87.670300 8.338990 -74.329900 -5.348130 -0.000001 -0.000004 -58.071800 11.200100 21.046000 -24.328900 0.000322 -0.000009 0.123752 9.608300 -0.748447 -22.291500 -0.000108 -0.000004 18.935700 5.120920 4.623950 -2.192480 -6.469440 -0.000000 -170.301000 -0.313761 6.834980 39.081100 -0.000007 -0.000012 0.041376 -0.040383 45.693900 40.985400 -0.000006 -0.000013 4.507320 10.376900 -63.107400 11.754300 -0.000000 0.000003 -0.252609 -0.726097 -48.143100 -2.192510 6.469440 -0.000001 -173.966000 14.331900 146.594000 -39.081100 -0.002282 -0.040193 -0.009435 0.010968 49.154000 -40.985400 0.000008 0.000006 9.621850 -0.344327 -65.236200 -11.754300 -0.000006 -0.000006 -0.005723 -0.068299 -19.352600
0.000000 0.000000 0.000000 0.000000 0.000000 -0.000000 -44.206400 84.817200 197.274000 -63.882000 84.536800 158.841000 15.735700 0.000005 -0.000001 61.360400 83.356900 -59.979200 8.984550 -0.406207 -0.000000 3.994150 -6.404410 2.985140 16.377300 -0.000001 -0.000001 0.654013 -5.331690 1.282790 6.456720 -0.000001 -0.000000 -6.217040 -2.490660 0.772725 12.994200 -0.242716 4.980390 -90.715800 2.558210 -74.362700 5.348090 -0.000007 -0.000001 -47.073800 17.440900 -43.550700 24.328600 0.000019 0.000005 13.374600 6.818010 -63.464200 22.291600 -0.000001 0.000005 22.166000 5.320890 -0.520465 12.994500 -0.242716 -4.980390 87.685500 8.389410 -74.516100 -5.348130 -0.000001 -0.000004 -57.580400 8.781300 20.435500 -24.328900 0.000322 -0.000009 0.013691 9.285760 -0.090603 -22.291500 -0.000108 -0.000004 19.710100 5.085690 5.439970 -2.192480 -6.469440 -0.000000 -168.660000 -0.477799 4.450470 39.081100 -0.000007 -0.000012 0.084690 -0.055869 56.585300 40.985400 -0.000006 -0.000013 2.363500 8.387290 -51.700200 11.754300 -0.000000 0.000003 -0.143801 -0.542362 -39.477200 -2.192510 6.469440 -0.000001 -173.169000 12.142100 151.438000 -39.081100 -0.002282 -0.040193 0.045518 -0.031871 52.991600 -40.985400 0.000008 0.000006 10.346300 -2.705400 -70.849800 -11.754300 -0.000006 -0.000006 -0.003067 -0.041355 -18.255000
0.000000 0.000000 0.000000 0.000000 0.000000 -0.000000 -39.920500 84.599800 198.180000 -52.737100 84.062600 149.146000 15.735700 0.000005 -0.000001 63.693900 82.945500 -61.886400 8.984550 -0.406207 -0.000000 5.007670 -6.283730 3.888840 16.377300 -0.000001 -0.000001 0.426719 -5.592540 1.567730 6.456720 -0.000001 -0.000000 -6.291320 -2.832320 2.076660 12.994200 -0.242716 4.980390 -90.820600 3.038190 -74.877800 5.348090 -0.000007 -0.000001 -49.537400 19.485900 -38.522000 24.328600 0.000019 0.000005 14.940700 7.241290 -64.715200 22.291600 -0.000001 0.000005 21.820600 5.334230 -0.908841 12.994500 -0.242716 -4.980390 87.526900 9.168290 -74.833400 -5.348130 -0.000001 -0.000004 -57.619300 7.812370 18.152600 -24.328900 0.000322 -0.000009 -0.001064 6.417960 0.000022 -22.291500 -0.000108 -0.000004 18.172400 5.092870 5.273920 -2.192480 -6.469440 -0.000000 -168.341000 1.438030 -1.604760 39.081100 -0.000007 -0.000012 0.081679 -0.034312 67.210100 40.985400 -0.000006 -0.000013 0.231218 2.408390 -39.506900 11.754300 -0.000000 0.000003 -0.006679 -0.076896 -19.706900 -2.192510 6.469440 -0.000001 -172.054000 13.922200 155.835000 -39.081100 -0.002282 -0.040193 0.012479 -0.006732 53.945900 -40.985400 0.000008 0.000006 10.873300 -2.005290 -75.013400 -11.754300 -0.000006 -0.000006 -0.002082 -0.029738 -17.782300
0.000000 0.000000 0.000000 0.000000 0.000000 -0.000000 -36.198600 84.959200 198.761000 -38.748700 84.933100 135.720000 15.735700 0.000005 -0.000001 68.051400 82.973600 -66.121100 8.984550 -0.406207 -0.000000 5.378230 -5.281110 4.106670 16.377300 -0.000001 -0.000001 0.301811 -5.722880 1.888170 6.456720 -0.000001 -0.000000 -6.149730 -3.401430 3.548800 12.994200 -0.242716 4.980390 -90.902400 3.366870 -74.987300 5.348090 -0.000007 -0.000001 -52.135200 23.163200 -33.811800 24.328600 0.000019 0.000005 14.418400 7.993120 -61.592300 22.291600 -0.000001 0.000005 22.201100 5.353840 -1.493240 12.994500 -0.242716 -4.980390 87.352100 10.175000 -75.329200 -5.348130 -0.000001 -0.000004 -58.775300 9.442870 14.428300 -24.328900 0.000322 -0.000009 0.042699 4.385990 -0.572462 -22.291500 -0.000108 -0.000004 15.819000 5.114760 4.770380 -2.192480 -6.469440 -0.000000 -169.800000 1.673520 -7.009380 39.081100 -0.000007 -0.000012 0.000454 -0.000113 75.278400 40.985400 -0.000006 -0.000013 3.286260 -2.306040 -42.803500 11.754300 -0.000000 0.000003 -0.007239 -0.081711 -19.903400 -2.192510 6.469440 -0.000001 -171.926000 15.492900 160.196000 -39.081100 -0.002282 -0.040193 0.135403 -0.100805 52.666800 -40.985400 0.000008 0.000006 12.815000 -0.073836 -77.844600 -11.754300 -0.000006 -0.000006 -0.001882 -0.027234 -17.680500
